<?xml version="1.0" standalone="no"?>
<!DOCTYPE svg PUBLIC "-//W3C//DTD SVG 20010904//EN"
 "http://www.w3.org/TR/2001/REC-SVG-20010904/DTD/svg10.dtd">
<svg version="1.0" xmlns="http://www.w3.org/2000/svg"
 width="1100.000000pt" height="620.000000pt" viewBox="0 0 1100.000000 620.000000"
 preserveAspectRatio="xMidYMid meet">

<g transform="translate(0.000000,620.000000) scale(0.100000,-0.100000)"
fill="#000000" stroke="none">
<path d="M4360 3916 c-231 -51 -349 -290 -245 -495 125 -248 489 -263 606 -25
24 49 31 76 32 131 l2 68 -162 3 -163 2 0 -45 0 -45 120 0 119 0 -14 -46 c-49
-163 -276 -204 -405 -75 -106 106 -106 266 0 371 48 49 118 80 180 80 39 0
114 -25 148 -48 l29 -21 28 29 c27 28 28 31 11 49 -25 28 -123 68 -181 74 -27
3 -75 0 -105 -7z"/>
<path d="M4945 3651 c-139 -63 -168 -250 -56 -362 38 -38 56 -49 104 -59 48
-10 66 -9 112 5 196 57 211 341 23 419 -50 21 -134 20 -183 -3z m163 -81 c110
-67 64 -260 -62 -260 -123 0 -179 145 -93 239 42 45 102 53 155 21z"/>
<path d="M5945 3641 c-102 -60 -141 -177 -94 -281 24 -53 53 -86 94 -108 72
-37 144 -34 199 9 l26 20 0 -46 c0 -25 -7 -59 -15 -75 -39 -76 -157 -79 -211
-6 -19 25 -19 25 -57 8 l-39 -17 30 -41 c41 -56 91 -79 172 -79 85 0 135 25
175 90 l30 48 3 249 3 248 -45 0 c-39 0 -46 -3 -46 -20 0 -18 -2 -18 -36 5
-53 36 -123 34 -189 -4z m186 -77 c94 -83 43 -254 -75 -254 -75 0 -136 60
-136 134 0 44 31 104 63 126 40 26 116 23 148 -6z"/>
<path d="M6625 3656 c-88 -38 -140 -155 -116 -262 18 -80 84 -147 160 -163 30
-6 70 -9 90 -5 42 7 108 43 134 72 18 20 18 21 -19 46 l-37 25 -34 -29 c-25
-23 -44 -30 -74 -30 -46 0 -94 22 -109 50 -12 23 -17 20 155 90 72 30 132 55
134 57 2 1 -4 20 -14 42 -20 46 -69 96 -108 110 -38 15 -125 13 -162 -3z m139
-77 c21 -10 43 -38 34 -44 -2 -1 -48 -20 -103 -42 -109 -45 -118 -43 -91 21
26 62 100 92 160 65z"/>
<path d="M4231 2816 c-17 -20 -2 -48 23 -44 24 3 34 37 14 49 -18 12 -24 11
-37 -5z"/>
<path d="M4662 2821 c-21 -13 -10 -46 16 -49 27 -4 40 22 22 43 -14 17 -20 18
-38 6z"/>
<path d="M5568 2820 c-134 -40 -178 -230 -76 -327 48 -45 76 -56 138 -57 103
0 171 57 185 157 l7 47 -91 0 c-84 0 -91 -1 -91 -20 0 -18 7 -20 71 -20 68 0
70 -1 64 -22 -27 -93 -133 -134 -219 -85 -138 78 -84 297 73 297 29 0 59 -8
79 -20 26 -16 37 -18 48 -9 19 15 9 28 -40 50 -43 19 -102 23 -148 9z"/>
<path d="M3870 2630 l0 -190 73 0 c77 1 136 17 169 47 49 43 73 153 47 220
-15 42 -68 92 -109 103 -19 5 -68 10 -107 10 l-73 0 0 -190z m198 130 c44 -27
65 -80 60 -148 -4 -45 -10 -59 -41 -90 -34 -34 -42 -37 -107 -40 l-70 -4 0
151 0 151 63 0 c45 0 71 -6 95 -20z"/>
<path d="M5230 2630 c0 -183 1 -190 20 -190 19 0 20 7 20 190 0 183 -1 190
-20 190 -19 0 -20 -7 -20 -190z"/>
<path d="M4800 2750 c0 -36 -2 -40 -25 -40 -32 0 -34 -27 -2 -32 21 -3 22 -8
25 -103 3 -113 14 -135 69 -135 26 0 33 4 33 20 0 13 -5 18 -15 14 -34 -13
-45 15 -45 112 l0 94 30 0 c20 0 30 5 30 15 0 10 -10 15 -30 15 -28 0 -30 2
-30 40 0 33 -3 40 -20 40 -17 0 -20 -7 -20 -40z"/>
<path d="M4405 2711 c-45 -20 -69 -59 -73 -120 -5 -69 14 -113 58 -136 42 -22
102 -19 134 6 l26 20 0 -36 c0 -27 -8 -44 -29 -66 -38 -37 -79 -38 -120 -3
-39 33 -72 27 -49 -9 33 -49 126 -63 185 -27 44 26 53 67 53 233 0 130 -1 137
-20 137 -14 0 -20 -7 -20 -22 l0 -21 -24 22 c-26 25 -89 36 -121 22z m119 -62
c57 -68 12 -179 -73 -179 -54 0 -98 80 -80 145 12 43 43 65 90 65 29 0 43 -7
63 -31z"/>
<path d="M4994 2706 c-18 -8 -35 -19 -39 -26 -12 -20 17 -30 39 -14 49 34 136
5 136 -46 0 -17 -5 -18 -49 -13 -92 11 -141 -19 -141 -85 0 -46 29 -77 80 -87
28 -5 43 -1 73 19 35 24 37 24 37 6 0 -14 7 -20 21 -20 20 0 21 4 17 110 -3
103 -5 111 -29 136 -32 32 -99 41 -145 20z m117 -136 c26 -14 24 -33 -7 -69
-43 -51 -124 -38 -124 19 0 50 76 79 131 50z"/>
<path d="M5915 2710 c-31 -12 -50 -39 -37 -52 7 -7 17 -6 33 6 37 26 94 21
118 -10 36 -45 29 -54 -37 -48 -95 10 -151 -31 -137 -102 12 -66 103 -91 164
-46 30 22 31 22 31 2 0 -11 7 -20 15 -20 12 0 15 18 15 106 0 58 -5 114 -11
126 -20 38 -104 59 -154 38z m126 -147 c14 -14 -14 -68 -40 -83 -46 -24 -111
0 -111 42 0 10 10 28 21 39 18 18 30 21 71 17 27 -3 54 -10 59 -15z"/>
<path d="M6240 2713 c-8 -3 -25 -15 -37 -26 l-23 -20 0 21 c0 13 -6 22 -15 22
-13 0 -15 -22 -15 -135 0 -128 1 -135 20 -135 19 0 20 7 20 95 0 90 2 98 26
122 19 19 33 24 55 21 26 -4 30 -2 27 16 -3 21 -29 30 -58 19z"/>
<path d="M6363 2701 c-18 -12 -33 -25 -33 -30 0 -16 25 -19 45 -5 47 34 135 4
135 -46 0 -17 -5 -18 -49 -13 -92 11 -141 -19 -141 -85 0 -46 29 -77 80 -87
28 -5 43 -1 73 19 35 24 37 24 37 6 0 -14 7 -20 21 -20 20 0 21 4 17 110 -3
103 -5 111 -30 136 -36 37 -110 44 -155 15z m128 -131 c26 -14 24 -33 -7 -69
-43 -51 -124 -38 -124 19 0 50 76 79 131 50z"/>
<path d="M6662 2704 c-114 -58 -77 -264 48 -264 41 0 90 17 90 32 0 4 5 8 10
8 17 0 11 -53 -10 -87 -24 -40 -73 -52 -119 -29 -17 9 -31 21 -31 26 0 14 -27
12 -36 -2 -4 -6 6 -23 25 -40 26 -24 40 -28 87 -28 50 0 59 3 90 34 l34 34 0
161 c0 136 -2 161 -15 161 -9 0 -15 -9 -15 -22 l0 -21 -24 22 c-32 30 -92 36
-134 15z m115 -39 c27 -19 46 -77 38 -115 -7 -34 -57 -80 -86 -80 -61 0 -106
60 -96 128 11 69 89 105 144 67z"/>
<path d="M6985 2711 c-82 -36 -106 -170 -42 -239 25 -27 86 -45 124 -36 36 9
83 42 83 59 0 24 -28 24 -51 -1 -40 -43 -116 -26 -144 31 -8 18 -15 36 -15 39
0 3 50 6 111 6 l112 0 -6 42 c-8 58 -50 99 -108 104 -24 2 -53 0 -64 -5z m110
-56 c46 -45 35 -55 -60 -55 -95 0 -106 10 -60 55 33 34 87 34 120 0z"/>
<path d="M4230 2575 c0 -128 1 -135 20 -135 19 0 20 7 20 135 0 128 -1 135
-20 135 -19 0 -20 -7 -20 -135z"/>
<path d="M4660 2575 c0 -128 1 -135 20 -135 19 0 20 7 20 135 0 128 -1 135
-20 135 -19 0 -20 -7 -20 -135z"/>
</g>
</svg>
