<?xml version="1.0" standalone="no"?>
<!DOCTYPE svg PUBLIC "-//W3C//DTD SVG 20010904//EN"
 "http://www.w3.org/TR/2001/REC-SVG-20010904/DTD/svg10.dtd">
<svg version="1.0" xmlns="http://www.w3.org/2000/svg"
 width="300.000000pt" height="168.000000pt" viewBox="0 0 300.000000 168.000000"
 preserveAspectRatio="xMidYMid meet">
<metadata>
Created by potrace 1.10, written by Peter Selinger 2001-2011
</metadata>
<g transform="translate(0.000000,168.000000) scale(0.100000,-0.100000)"
fill="#000000" stroke="none">
<path d="M1243 1043 c-13 -2 -31 -16 -42 -29 -11 -14 -28 -25 -38 -24 -30 3
-61 -11 -66 -30 -6 -24 -106 -73 -122 -60 -16 13 -95 29 -95 19 0 -12 -97 -11
-121 1 -10 6 -19 17 -19 25 0 21 -29 45 -54 45 -26 0 -56 -29 -56 -53 0 -14
-10 -17 -49 -17 -27 0 -56 -3 -65 -6 -10 -4 -16 -1 -16 9 0 25 -40 67 -64 67
-36 0 -57 -31 -55 -81 2 -55 -7 -85 -28 -93 -9 -4 -17 -5 -19 -4 -1 2 -4 33
-6 70 -5 71 -21 101 -59 111 -12 3 -26 -3 -39 -20 -17 -22 -20 -41 -20 -127 0
-150 -4 -146 178 -145 83 1 153 6 160 12 9 7 20 6 35 -2 14 -7 68 -10 147 -9
69 1 139 -2 157 -6 23 -5 43 -2 68 10 34 16 39 16 69 1 24 -11 50 -14 96 -10
58 6 64 4 81 -18 17 -23 25 -24 156 -29 160 -6 174 -5 202 21 20 18 21 31 21
173 0 209 7 200 -177 203 -76 0 -148 -1 -160 -4z m302 -198 l0 -160 -160 0
-160 0 -3 163 -2 162 162 -2 163 -3 0 -160z m-1205 -65 c47 0 50 -2 50 -25 0
-24 -2 -25 -75 -25 l-75 0 0 114 c0 111 1 115 23 118 21 3 22 0 25 -89 l3 -93
49 0z m119 172 c12 -22 -3 -42 -30 -42 -22 0 -33 28 -18 46 16 19 36 17 48 -4z
m253 -59 l-3 -68 30 33 c22 23 40 32 63 32 l32 0 -32 -33 c-18 -18 -32 -37
-32 -41 0 -4 14 -26 31 -47 l31 -39 -36 0 c-29 0 -38 5 -51 29 -24 47 -38 50
-33 7 4 -34 2 -36 -24 -36 l-28 0 0 115 0 115 28 0 28 0 -4 -67z m458 -48 l0
-116 -32 0 c-18 0 -48 -1 -66 -1 -46 -1 -72 26 -72 76 0 23 7 52 16 65 14 20
23 23 60 18 l44 -5 0 39 c0 35 3 39 25 39 l25 0 0 -115z m-710 -35 c0 -79 0
-80 -25 -80 -25 0 -25 1 -25 80 0 79 0 80 25 80 25 0 25 -1 25 -80z m70 68 c0
-9 3 -9 12 0 17 17 64 15 82 -4 11 -11 16 -35 16 -80 0 -61 -1 -64 -25 -64
-22 0 -24 4 -27 58 -3 49 -6 57 -23 57 -17 0 -20 -8 -23 -57 -3 -56 -4 -58
-30 -58 l-27 0 0 80 c0 76 1 80 23 80 12 0 22 -5 22 -12z m430 -8 c11 -11 20
-33 20 -50 0 -30 0 -30 -57 -30 -54 0 -56 -1 -40 -17 14 -15 21 -16 37 -5 15
9 26 10 40 2 27 -15 25 -19 -16 -36 -90 -38 -167 64 -99 131 31 32 86 34 115
5z"/>
<path d="M1277 955 c-20 -19 -12 -45 14 -45 26 0 36 28 17 46 -13 14 -17 14
-31 -1z"/>
<path d="M1270 810 c0 -76 1 -80 23 -80 21 0 22 4 23 80 0 77 0 80 -23 80 -22
0 -23 -3 -23 -80z"/>
<path d="M1350 810 c0 -80 0 -80 26 -80 26 0 26 2 22 45 -6 50 10 82 36 72 12
-5 16 -20 16 -62 0 -52 1 -55 25 -55 24 0 25 2 25 63 0 49 -4 68 -18 80 -22
20 -53 22 -71 5 -11 -10 -14 -10 -18 0 -3 6 -13 12 -24 12 -17 0 -19 -8 -19
-80z"/>
<path d="M1062 841 c-8 -5 -12 -21 -10 -37 3 -25 7 -29 33 -29 24 0 31 5 33
23 6 39 -25 63 -56 43z"/>
<path d="M880 845 c-11 -13 -8 -15 19 -15 33 0 42 14 15 24 -21 8 -20 8 -34
-9z"/>
<path d="M1630 954 c-6 -14 -10 -69 -10 -123 0 -131 -1 -130 155 -129 80 0
127 4 141 13 16 11 24 10 45 -1 46 -26 196 -13 208 18 7 19 7 19 25 -1 27 -29
54 -26 68 7 6 15 10 32 9 37 -4 16 20 -11 33 -37 8 -17 21 -23 46 -25 19 0 40
-2 45 -3 6 -1 27 -2 48 -1 30 1 40 6 44 21 3 11 9 20 14 20 5 0 9 8 9 18 1 10
8 3 18 -18 12 -25 25 -36 45 -38 18 -2 27 -9 27 -21 0 -30 22 -41 80 -41 82 0
94 16 107 136 7 79 -13 110 -76 118 -38 5 -59 2 -83 -10 -29 -15 -33 -15 -61
1 -18 11 -39 15 -56 12 -40 -8 -71 2 -71 24 0 22 -32 41 -54 33 -9 -3 -20 -20
-25 -38 -5 -20 -13 -29 -22 -27 -15 5 -28 5 -169 2 -52 -2 -111 0 -132 4 -25
5 -47 2 -70 -9 -31 -15 -37 -15 -67 0 -76 38 -157 -22 -154 -113 1 -7 -6 -13
-15 -13 -8 0 -12 3 -9 7 4 3 -1 12 -10 18 -13 10 -18 31 -20 86 -2 41 -5 80
-8 87 -8 22 -45 13 -55 -14z m40 -94 l0 -110 55 0 c30 0 55 -4 55 -10 0 -6
-29 -10 -67 -10 l-68 0 2 117 c1 65 2 119 3 121 0 1 5 2 10 2 6 0 10 -43 10
-110z m748 67 c2 -10 -3 -17 -12 -17 -18 0 -29 16 -21 31 9 14 29 6 33 -14z
m-509 -73 c12 -15 21 -35 21 -46 0 -18 -6 -19 -65 -16 -36 1 -65 2 -65 0 0 -2
5 -12 10 -23 12 -22 68 -27 88 -7 6 6 15 8 19 4 12 -12 -36 -46 -64 -46 -35 0
-73 42 -73 81 0 72 86 107 129 53z m149 14 c9 -9 12 -9 12 0 0 7 7 12 15 12
12 0 15 -15 15 -76 0 -66 -2 -75 -17 -73 -10 2 -28 -1 -41 -5 -48 -16 -102 29
-102 85 0 48 85 90 118 57z m92 2 c0 -6 8 -5 20 2 10 7 23 8 27 4 4 -5 2 -11
-5 -13 -29 -11 -42 -36 -42 -84 0 -27 -4 -49 -10 -49 -6 0 -10 32 -10 75 0 43
4 75 10 75 6 0 10 -5 10 -10z m90 -2 c0 -9 3 -9 12 0 17 17 58 15 80 -5 24
-21 27 -133 3 -133 -12 0 -15 13 -15 60 0 67 -13 81 -56 62 -21 -10 -24 -18
-24 -67 0 -30 -4 -55 -10 -55 -6 0 -10 32 -10 75 0 43 4 75 10 75 6 0 10 -5
10 -12z m180 -63 c0 -60 -3 -75 -15 -75 -12 0 -15 14 -15 65 0 37 -4 65 -10
65 -5 0 -10 5 -10 10 0 6 11 10 25 10 24 0 25 -2 25 -75z m50 63 c0 -9 3 -9
12 0 17 17 64 15 82 -4 23 -22 23 -134 0 -134 -12 0 -15 11 -13 55 3 66 -9 83
-48 69 -26 -9 -28 -13 -28 -67 0 -40 -3 -57 -12 -57 -9 0 -13 21 -13 75 0 43
4 75 10 75 6 0 10 -5 10 -12z m248 0 c9 -9 12 -9 12 0 0 7 7 12 15 12 12 0 15
-15 15 -79 0 -65 -4 -83 -21 -105 -18 -23 -27 -27 -67 -24 -25 2 -47 8 -49 15
-3 8 8 10 36 6 45 -6 71 8 71 38 0 18 -1 19 -25 3 -45 -29 -105 14 -105 75 0
34 39 71 74 71 17 0 37 -5 44 -12z"/>
<path d="M1817 842 c-26 -28 -21 -32 33 -32 34 0 50 4 50 13 0 37 -56 49 -83
19z"/>
<path d="M1988 849 c-21 -12 -24 -69 -6 -87 7 -7 24 -12 38 -12 33 0 50 17 50
51 0 48 -41 72 -82 48z"/>
<path d="M2642 848 c-7 -7 -12 -26 -12 -43 0 -38 16 -55 50 -55 33 0 50 17 50
51 0 49 -56 79 -88 47z"/>
</g>
</svg>
