<?xml version="1.0" encoding="utf-8"?>
<!-- Generator: Adobe Illustrator 23.1.0, SVG Export Plug-In . SVG Version: 6.00 Build 0)  -->
<svg version="1.1" id="Layer_1" xmlns="http://www.w3.org/2000/svg" xmlns:xlink="http://www.w3.org/1999/xlink" x="0px" y="0px"
	 width="200px" height="200px" viewBox="0 0 200 200" style="enable-background:new 0 0 200 200;" xml:space="preserve">
<style type="text/css">
	.st0{fill:#141414;}
</style>
<g>
	<rect x="14.3" y="29.6" class="st0" width="21.1" height="9.4"/>
	<polygon class="st0" points="63.9,101.4 100.9,101.4 79.1,123.1 14.3,123.1 14.3,201 23.7,191.6 44.9,170.4 54.4,160.9 54.4,151.6 
		54.4,147.9 54.4,140.7 44.9,140.7 44.9,157.3 23.7,178.5 23.7,132.6 82.8,132.6 123.4,92 63.9,92 	"/>
	<polygon class="st0" points="63.9,29.6 63.9,39 163.2,39 141.5,60.8 54.9,60.8 14.3,101.4 36.8,101.4 36.8,92 36.8,92 44.9,83.8 
		57.6,71.1 58.6,70.2 145.1,70.2 185.7,29.6 	"/>
	<polygon class="st0" points="54.4,-1 44.9,-1 44.9,61.1 54.4,51.7 	"/>
	<polygon class="st0" points="44.9,93.5 44.9,115 54.4,115 54.4,84 	"/>
</g>
</svg>
